<?xml version="1.0" encoding="UTF-8" standalone="no"?>
<!DOCTYPE svg PUBLIC "-//W3C//DTD SVG 1.1//EN" "http://www.w3.org/Graphics/SVG/1.1/DTD/svg11.dtd">
<svg width="100%" height="100%" viewBox="0 0 2084 2084" version="1.1" xmlns="http://www.w3.org/2000/svg" xmlns:xlink="http://www.w3.org/1999/xlink" xml:space="preserve" xmlns:serif="http://www.serif.com/" style="fill-rule:evenodd;clip-rule:evenodd;stroke-linejoin:round;stroke-miterlimit:2;">
    <g transform="matrix(4.16667,0,0,4.16667,0,0)">
        <g>
            <g>
                <clipPath id="_clip1">
                    <path d="M0,281.802L143.297,5.781L467.245,173.964L323.943,449.979L0,281.802Z"/>
                </clipPath>
                <g clip-path="url(#_clip1)">
                    <g>
                        <clipPath id="_clip2">
                            <path d="M0,281.802L143.297,5.781L467.245,173.964L323.943,449.979L0,281.802Z"/>
                        </clipPath>
                        <g clip-path="url(#_clip2)">
                            <path d="M75.844,137.979C120.771,126.557 167.682,131.891 208.88,153.276C301.479,201.354 337.385,316.422 288.911,409.781C285.922,415.542 282.615,421.193 279.026,426.661C323.323,410.917 359.417,379.474 381.286,337.349C428.24,246.911 393.479,135.458 303.802,88.901C226.505,48.771 130.115,70.036 75.844,137.979Z" style="fill:white;fill-rule:nonzero;"/>
                        </g>
                    </g>
                </g>
            </g>
        </g>
    </g>
</svg>
